HIERARCHY
ROOT Hips
{
	OFFSET 0.000000 0.000000 0.000000
	CHANNELS 6 Xposition Yposition Zposition Zrotation Yrotation Xrotation
	JOINT LeftUpLeg
	{
		OFFSET 4.466820 0.000000 0.000000
		CHANNELS 3 Zrotation Yrotation Xrotation
		JOINT LeftLeg
		{
			OFFSET 0.000000 -17.031780 0.000000
			CHANNELS 3 Zrotation Yrotation Xrotation
			JOINT LeftFoot
			{
				OFFSET 0.000000 -15.721901 0.000000
				CHANNELS 3 Zrotation Yrotation Xrotation
				JOINT LeftToeBase
				{
					OFFSET 0.000000 -1.612808 6.019110
					CHANNELS 3 Zrotation Yrotation Xrotation
					End Site
					{
						OFFSET 0.000000 0.000000 2.952750
					}
				}
			}
		}
	}
	JOINT RightUpLeg
	{
		OFFSET -4.466820 0.000000 0.000000
		CHANNELS 3 Zrotation Yrotation Xrotation
		JOINT RightLeg
		{
			OFFSET 0.000000 -17.031780 0.000000
			CHANNELS 3 Zrotation Yrotation Xrotation
			JOINT RightFoot
			{
				OFFSET 0.000000 -15.721901 0.000000
				CHANNELS 3 Zrotation Yrotation Xrotation
				JOINT RightToeBase
				{
					OFFSET 0.000000 -1.612808 6.019110
					CHANNELS 3 Zrotation Yrotation Xrotation
					End Site
					{
						OFFSET 0.000000 0.000000 2.952750
					}
				}
			}
		}
	}
	JOINT Spine
	{
		OFFSET 0.000000 0.039370 0.000000
		CHANNELS 3 Zrotation Yrotation Xrotation
		JOINT Spine1
		{
			OFFSET 0.000000 6.636480 0.000000
			CHANNELS 3 Zrotation Yrotation Xrotation
			JOINT Neck
			{
				OFFSET 0.000000 10.893131 0.000000
				CHANNELS 3 Zrotation Yrotation Xrotation
				JOINT Head
				{
					OFFSET 0.000000 5.848410 0.000000
					CHANNELS 3 Zrotation Yrotation Xrotation
					End Site
					{
						OFFSET 0.000000 10.040617 0.000000
					}
				}
			}
			JOINT LeftShoulder
			{
				OFFSET 0.000000 10.893131 0.000000
				CHANNELS 3 Zrotation Yrotation Xrotation
				JOINT LeftArm
				{
					OFFSET 7.212660 -0.000031 0.000000
					CHANNELS 3 Zrotation Yrotation Xrotation
					JOINT LeftForeArm
					{
						OFFSET 9.648291 -0.000040 0.000000
						CHANNELS 3 Zrotation Yrotation Xrotation
						JOINT LeftHand
						{
							OFFSET 9.067930 -0.000031 0.000000
							CHANNELS 3 Zrotation Yrotation Xrotation
							JOINT LeftHandThumb
							{
								OFFSET 0.000000 0.000000 0.000000
								CHANNELS 3 Zrotation Yrotation Xrotation
								End Site
								{
									OFFSET 0.000000 0.000000 1.937000
								}
							}
							JOINT L_Wrist_End
							{
								OFFSET 7.136999 -0.000010 0.000000
								CHANNELS 3 Zrotation Yrotation Xrotation
								End Site
								{
									OFFSET 0.000000 0.100000 0.000000
								}
							}
						}
					}
				}
			}
			JOINT RightShoulder
			{
				OFFSET 0.000000 10.893131 0.000000
				CHANNELS 3 Zrotation Yrotation Xrotation
				JOINT RightArm
				{
					OFFSET -7.212660 -0.000031 0.000000
					CHANNELS 3 Zrotation Yrotation Xrotation
					JOINT RightForeArm
					{
						OFFSET -9.648291 -0.000040 0.000000
						CHANNELS 3 Zrotation Yrotation Xrotation
						JOINT RightHand
						{
							OFFSET -9.067930 -0.000031 0.000000
							CHANNELS 3 Zrotation Yrotation Xrotation
							JOINT RightHandThumb
							{
								OFFSET 0.000000 0.000000 0.000000
								CHANNELS 3 Zrotation Yrotation Xrotation
								End Site
								{
									OFFSET 0.000000 0.000000 1.937000
								}
							}
							JOINT R_Wrist_End
							{
								OFFSET -8.593691 -0.000019 0.000000
								CHANNELS 3 Zrotation Yrotation Xrotation
								End Site
								{
									OFFSET 0.000000 0.100000 0.000000
								}
							}
						}
					}
				}
			}
		}
	}
}
MOTION
Frames: 10
Frame Time: 0.008333
35.012001 37.489700 19.583099 155.745771 -66.492260 -519.916131 3.287704 -2.494664 -47.195897 0.000001 0.000001 100.562391 -7.068455 -0.148324 -1.222844 0.000001 -0.000000 -13.317503 1.422729 4.098413 0.062492 -0.000001 0.000000 25.549704 -3.847732 5.294482 12.531665 -0.000002 0.000001 -16.332591 3.784639 7.639471 -6.765530 -12.416839 5.425562 15.591261 9.675904 0.596929 29.258748 -13.599653 -9.169403 -29.956510 7.144231 -2.937452 7.905213 -58.068144 -2.455515 37.162602 0.000039 -20.584204 -0.000106 -19.451552 7.622947 16.852879 -0.000000 0.000001 0.000000 0.000001 -0.000002 0.000004 -2.301248 9.017502 2.405749 63.144662 6.795636 16.259831 0.009898 91.094301 0.009899 -6.696708 -29.723470 -6.621260 -0.000001 -0.000001 0.000000 -0.000001 -0.000002 -0.000001 
34.764000 37.692402 19.509100 155.865491 -65.679523 -520.214200 2.733716 -2.668325 -47.216165 0.000002 0.000001 99.557397 -6.717062 -0.211156 -0.769382 -0.000001 0.000000 -13.854699 0.868552 3.525286 -0.471359 -0.000000 -0.000002 26.823097 -3.676747 5.142532 12.892045 -0.000001 0.000001 -14.836699 3.853824 7.876748 -6.503640 -12.838187 5.616234 15.672018 9.896314 0.696911 30.006933 -13.779812 -9.478571 -31.220716 7.202048 -2.861059 8.670299 -57.657110 -2.386064 37.293601 0.000033 -19.631403 -0.000105 -21.018666 7.883435 16.215678 0.000000 -0.000000 0.000001 -0.000000 -0.000001 0.000001 -1.993364 9.295997 2.611264 62.705119 6.947415 15.806024 0.003508 93.386301 0.003347 -5.789629 -28.445025 -8.963870 0.000000 -0.000000 -0.000003 -0.000000 -0.000001 -0.000000 
34.527802 37.866001 19.411699 156.595897 -64.945660 -521.007540 2.512827 -2.700172 -47.290997 -0.000001 -0.000000 98.672601 -6.727587 -0.283854 -0.409662 0.000000 0.000000 -14.043601 0.710913 3.004472 -0.997005 -0.000001 0.000000 27.848501 -4.532502 4.552042 12.532520 0.000001 -0.000001 -14.732694 3.850368 8.040141 -6.355660 -12.830627 5.792677 15.768310 10.064093 1.160687 30.687801 -13.783800 -9.983224 -32.273880 7.199626 -2.850626 9.158862 -57.340872 -2.190022 37.959015 0.000032 -18.413801 -0.000108 -22.288333 7.682266 16.029812 0.000000 -0.000000 0.000002 -0.000000 -0.000000 0.000001 -1.723948 9.676266 2.899804 62.283908 7.120573 15.139207 0.002188 95.585800 0.002020 -4.583865 -27.344941 -11.600458 0.000001 0.000001 -0.000001 0.000001 -0.000002 -0.000002 
34.252800 38.023701 19.338100 156.333003 -64.175071 -521.063056 1.784573 -2.926660 -47.013070 0.000000 0.000002 97.654698 -7.024642 -0.205194 -0.033151 -0.000001 -0.000001 -14.179400 0.043403 2.274136 -1.152669 -0.000000 0.000001 28.390497 -4.914984 3.783959 11.733380 -0.000002 0.000000 -14.410499 3.723484 8.155517 -6.081589 -13.110670 5.907773 15.844675 10.143810 1.222470 31.409404 -13.925411 -10.073773 -33.389083 7.051000 -2.686326 9.896730 -56.747097 -2.007213 38.072304 0.000032 -18.159301 -0.000106 -23.493470 8.404089 15.826395 -0.000001 0.000003 0.000000 -0.000001 0.000001 0.000001 -1.321982 9.890542 3.106536 61.784805 7.464341 14.845918 0.001657 97.446398 0.001465 -3.733002 -26.583836 -13.885005 0.000000 -0.000004 0.000001 0.000000 -0.000003 -0.000001 
34.005001 38.135399 19.244900 156.931970 -63.609456 -521.703455 1.561281 -3.063565 -46.985114 0.000001 0.000001 96.806901 -7.283113 -0.135743 0.170784 0.000002 0.000000 -14.285897 -0.152921 1.349492 -1.486394 0.000000 0.000001 28.572599 -5.721561 3.117472 11.406161 -0.000001 -0.000000 -14.498996 3.737760 8.202313 -6.012398 -13.108246 5.967267 15.923032 10.241338 1.806401 31.880273 -13.824072 -10.375126 -33.963594 6.937132 -2.636356 10.092498 -56.278211 -1.532111 38.986515 0.000031 -17.413699 -0.000105 -24.517857 8.550133 16.145502 0.000000 0.000003 0.000000 0.000001 0.000000 0.000000 -0.978473 10.155758 3.170032 61.301890 7.696846 14.556144 0.001273 99.172899 0.001076 -3.055684 -25.951440 -15.739602 -0.000000 -0.000000 0.000001 -0.000000 0.000000 0.000001 
33.753700 38.215302 19.131901 157.655273 -63.160016 -522.548103 1.458099 -3.201108 -46.791512 -0.000002 -0.000001 96.009401 -7.510521 -0.046166 0.131060 0.000001 -0.000001 -13.962589 -0.089341 1.019628 -1.395170 0.000001 0.000002 28.035903 -5.815163 2.360289 10.787931 0.000000 -0.000000 -13.196102 3.730835 8.182976 -6.011497 -12.965457 6.005547 16.140750 10.105577 1.760101 32.073165 -14.015381 -10.048264 -34.146404 6.782291 -2.712129 10.059631 -55.849391 -0.849452 39.578409 0.000032 -16.764399 -0.000104 -25.474104 8.965256 16.483031 -0.000001 0.000000 0.000002 -0.000001 0.000002 0.000002 -0.673841 10.360864 3.084971 60.950375 7.948619 14.381641 0.001175 100.647701 0.000990 -2.729087 -25.629131 -16.668426 -0.000000 -0.000001 0.000001 -0.000000 0.000002 0.000001 
33.482300 38.264400 19.031900 158.022396 -62.678897 -523.065558 1.144920 -3.397455 -46.492169 0.000002 -0.000000 95.178898 -7.740121 0.109661 -0.068592 0.000002 -0.000000 -13.934100 -0.309035 0.264302 -1.292030 -0.000001 -0.000000 27.318704 -6.155821 2.729119 10.029550 0.000000 -0.000001 -13.207901 3.724666 8.130142 -6.144014 -12.980745 6.038125 16.459974 9.990065 1.727357 32.044393 -14.320804 -9.584179 -33.832078 6.755794 -2.573863 10.204745 -55.493808 -0.470321 40.406982 0.000030 -16.289303 -0.000109 -26.115534 9.304788 16.808853 0.000001 -0.000001 0.000000 -0.000001 -0.000001 0.000000 -0.486105 10.454915 2.578127 60.761540 8.124559 14.615881 0.001012 101.736296 0.000814 -2.626233 -25.477675 -17.053312 0.000002 -0.000001 -0.000000 0.000002 0.000000 -0.000001 
33.199600 38.275700 18.927500 158.336735 -62.249483 -523.498100 0.818612 -3.606190 -46.203170 0.000000 -0.000002 94.421601 -7.879363 0.298008 -0.321781 -0.000000 -0.000001 -13.948197 -0.547811 -0.524488 -1.166792 0.000001 0.000001 26.394002 -6.452733 3.621632 9.164910 -0.000000 -0.000001 -13.425700 3.713074 8.060840 -6.344119 -13.000626 6.052516 16.759604 9.874663 1.919393 31.854527 -14.448989 -9.115702 -33.158198 6.826236 -2.490968 10.172592 -55.199782 0.136466 41.182346 0.000030 -16.074698 -0.000101 -26.559860 9.804795 17.268323 0.000001 0.000003 0.000000 0.000002 0.000001 -0.000001 -0.305977 10.530978 2.257510 60.624739 8.423968 14.785908 0.001444 102.685501 0.001242 -2.723859 -25.560897 -16.888112 0.000001 -0.000002 0.000001 0.000000 0.000001 0.000001 
32.924099 38.251099 18.819500 158.845366 -61.933656 -524.033860 0.628272 -3.843943 -46.045242 0.000002 -0.000000 93.797198 -7.961329 0.493982 -0.560998 0.000000 -0.000002 -14.000100 -0.640637 -1.173359 -1.140516 -0.000001 -0.000000 25.430498 -6.453449 4.563229 8.230231 -0.000001 0.000002 -13.670103 3.730289 7.963666 -6.471238 -12.933619 5.985402 16.868878 9.718751 2.264443 31.520302 -14.436090 -8.653178 -32.198676 7.041645 -2.325337 10.186100 -55.078891 0.567237 42.362554 0.000030 -15.815798 -0.000105 -26.339585 9.979449 17.378499 -0.000002 -0.000000 0.000000 -0.000003 -0.000001 0.000001 -0.260242 10.535403 1.960689 60.664053 8.767636 15.034834 0.000968 103.430197 0.000750 -2.868506 -25.809569 -16.449138 0.000000 0.000001 0.000001 0.000001 0.000003 0.000001 
32.633999 38.207298 18.704201 159.355089 -61.679374 -524.618251 0.443324 -4.119820 -45.791350 -0.000003 -0.000000 93.214003 -8.082534 0.712117 -0.830192 0.000001 0.000000 -13.980695 -0.634016 -1.671420 -1.008138 -0.000000 -0.000002 24.347399 -6.852430 5.206170 7.315455 -0.000000 -0.000000 -13.783802 3.765759 7.820854 -6.726727 -12.820228 5.933133 17.173602 9.521170 2.508506 31.079919 -14.462348 -8.127811 -31.189038 7.278536 -2.242080 9.988605 -54.956617 1.246352 43.016391 0.000031 -15.892199 -0.000103 -26.246668 10.704319 17.661758 -0.000001 0.000001 0.000001 -0.000001 -0.000000 0.000001 -0.382399 10.515650 1.666865 60.891464 9.173987 15.292983 0.001333 103.950097 0.001111 -2.994530 -26.168512 -15.730054 -0.000000 -0.000001 0.000001 0.000000 0.000001 0.000001 
